<svg xmlns="http://www.w3.org/2000/svg" viewBox="0 0 880.51 325.71"><defs><style>.cls-1{font-size:153px;}.cls-1,.cls-5{fill:#fff;}.cls-1,.cls-2{font-family:TwCenMT-Regular, Tw Cen MT;}.cls-2{font-size:102.88px;}.cls-2,.cls-4{fill:#b5a076;}.cls-3{letter-spacing:-0.02em;}</style></defs><g id="Layer_2" data-name="Layer 2"><g id="Layer_1-2" data-name="Layer 1"><text class="cls-1" transform="translate(233.35 176.88)">ISTIKHARA</text><text class="cls-2" transform="translate(314.78 271.36)">QALAN<tspan class="cls-3" x="311.82" y="0">D</tspan><tspan x="371.9" y="0">AR</tspan></text><path class="cls-4" d="M130.74,227.75c3-8.09,6.17-15.95,8.86-24,.61-1.81.49-4.84-.64-6.11-12.82-14.39-22.37-30.53-27.39-49.24-.23-.87-.67-1.68-1.52-3.75-.31,2.31-.54,3.24-.54,4.16,0,18.33-.07,36.66.12,55a8.58,8.58,0,0,0,2.47,5.39c4.49,4.54,4.94,10.28.72,14.58A9.56,9.56,0,0,1,99,223.75c-4.2-4.35-3.78-10,.81-14.54,1.16-1.15,2.37-3,2.38-4.45.18-19.16.15-38.32.15-57.48a16,16,0,0,0-.66-2.71c-2,6-3.59,11.16-5.54,16.18a111.1,111.1,0,0,1-22.46,35.68c-2.44,2.63-2.62,4.82-1.39,7.91,3,7.7,5.84,15.5,8.85,23.57-9.06-4.32-17.47-9.3-26.52-12.4-11.7-4-23.84-6.79-35.92-9.54-4.64-1.06-8-1.93-9.4-7.4-5.12-20.49-1.39-38.6,13.28-54,10.1-10.62,22.51-18,35.13-25.17s26-13.54,36-24.63a44.06,44.06,0,0,0,11.64-24.4c-11.83-1.9-20.94-7.79-26.82-18a35.3,35.3,0,0,1-4.29-21.2C75.68,16.27,86.18,4.37,102.58,0c-9.5,5.81-15.14,13.18-16.74,23.18a30.67,30.67,0,0,0,7.74,26.36c10,11.23,31.06,17.27,48.21-1.44-.75,5.49-5.87,13-13.45,16.76-6.52,3.27-13.83,4.94-21.13,7.44,2.41,13.9,11,24.66,23,32.52s24.92,14.63,37.12,22.35c13.59,8.6,26.33,18.27,33,33.71,5.43,12.58,5.6,25.42,1.89,38.55-1.2,4.25-3.62,5.48-7.56,6.32-11.48,2.45-23.12,4.61-34.19,8.39C150.36,217.6,140.9,223,130.74,227.75Z"/><path class="cls-5" d="M0,301.25V231.73c6.77,1,13.23,1.74,19.65,2.8,5.82,1,6.24.74,6.41-5.17.22-7.65.51-8,8-6.81a114.78,114.78,0,0,1,39.78,13.53c-8-1.68-15.54-3.45-23.12-4.74-4.07-.69-8.28-.5-12.42-.79-2.75-.2-4,1.1-4.07,3.74q-.1,12.5-.12,25c0,3.71,2.67,2.87,5,2.93,9.41.24,18.94-.19,28.21,1.15,12.13,1.76,23.23,7,33.09,14.32,4.06,3,6.86,3,10.91.16a87.34,87.34,0,0,1,52.34-16.48,87.08,87.08,0,0,1,9.92.92c2.65.33,4.16-.37,4.15-3.35q-.06-12.24,0-24.49c0-3.14-1.71-4.19-4.45-3.83q-13.55,1.72-27.07,3.66c-1.41.2-2.78.77-4.52.51a10.5,10.5,0,0,1,1.94-1.62,109.69,109.69,0,0,1,37.11-10.85c3.73-.41,5.88.53,5.13,4.79a8.34,8.34,0,0,0,0,1.5c.08,7,.21,7,7.1,5.77,5.06-.89,10.18-1.47,15.26-2.2,3-.43,4.17.77,4.15,3.86q-.13,30.25,0,60.5c0,4.48-1.83,4.31-5.28,3.34-14.58-4.13-29.3-5.25-44.35-2.42-19.42,3.66-36.37,12.32-51.79,24.37l-5,3.89C75,300.29,40.76,288.21,0,301.25Zm26-28c0-8.45-.14-16.08.06-23.71.11-4.24-1.36-6.31-5.77-5.82a11.89,11.89,0,0,1-3-.06c-4.5-.66-6.26,1.07-6.14,5.77.27,10.16.3,20.33,0,30.48-.13,4.36.91,5.6,5.49,5.47,11.25-.32,22.68-1,33.73.52,18.16,2.57,34.81,9.93,49.6,20.9,4.55,3.38,7.6,3,12.13-.16,16.79-11.91,35.29-20,56-21.56,9.38-.69,18.88,0,28.31.37,2.67.09,4.18-.28,4.16-3.27-.05-11.5,0-23-.15-34.49,0-1.27-1.07-3.58-1.75-3.62-3.76-.21-7.74-.46-11.23.63-1.17.37-1.48,4.65-1.55,7.16-.2,6.93-.07,13.87-.07,21.42-2.56-.49-4.13-.94-5.73-1.08-8.22-.7-16.49-2.2-24.67-1.8-17.51.87-32.58,8.5-46.11,19.31-2.54,2-4.26,1.92-6.88-.12-18.55-14.4-39.09-22.43-63-18.85C35.23,271.36,31,272.29,26,273.24Z"/><path class="cls-5" d="M101.23,22.6c10.14,2.08,14.64-2.27,16-11.92,2,8.77,5.67,14.37,16,11.13-4.32,5.41-5.4,8.23-7.65,19.13-5.92-7.14-11.68-5.68-17.93.56C111.62,32.93,110.49,26.63,101.23,22.6Z"/></g></g></svg>