<?xml version="1.0" encoding="utf-8"?>
<!-- Generator: Adobe Illustrator 25.2.3, SVG Export Plug-In . SVG Version: 6.00 Build 0)  -->
<svg version="1.1" id="Layer_1" xmlns="http://www.w3.org/2000/svg" xmlns:xlink="http://www.w3.org/1999/xlink" x="0px" y="0px"
	 viewBox="0 0 1080 1080" style="enable-background:new 0 0 1080 1080;" xml:space="preserve">
<style type="text/css">
	.st0{display:none;fill:#013237;}
	.st1{fill:#FFFFFF;}
	.st2{fill:#B5A076;}
	.st3{display:none;}
	.st4{display:inline;}
	.st5{fill:#013237;}
	.st6{font-family:'Trushdex';}
	.st7{font-size:52.1774px;}
	.st8{display:inline;fill:#FFFFFF;}
	.st9{display:inline;fill:#013237;}
	.st10{display:inline;fill:#174159;}
</style>
<rect class="st0" width="1080" height="1080"/>
<g>
	<g>
		<path class="st1" d="M357.5,685.58h5.83v43.17h-5.83V685.58z"/>
		<path class="st1" d="M399.18,690.39l-4.78,3.83c-1.26-1.31-2.41-2.29-3.43-2.93c-1.03-0.64-2.51-0.97-4.45-0.97
			c-2.12,0-3.84,0.48-5.16,1.44c-1.32,0.96-1.98,2.19-1.98,3.7c0,1.31,0.58,2.46,1.73,3.46s3.11,2.1,5.89,3.29s4.93,2.3,6.48,3.33
			c1.54,1.03,2.81,2.16,3.81,3.4c0.99,1.24,1.73,2.55,2.22,3.93c0.48,1.38,0.73,2.83,0.73,4.37c0,3.59-1.3,6.65-3.91,9.18
			c-2.61,2.53-5.77,3.79-9.47,3.79c-3.61,0-6.81-0.99-9.57-2.96c-2.77-1.98-4.9-4.94-6.39-8.9l5.9-1.66
			c2.15,4.86,5.43,7.29,9.86,7.29c2.15,0,3.93-0.64,5.35-1.93c1.42-1.28,2.13-2.91,2.13-4.86c0-1.17-0.37-2.35-1.12-3.53
			c-0.75-1.18-1.67-2.16-2.78-2.92c-1.11-0.77-2.87-1.64-5.29-2.64c-2.42-0.99-4.28-1.9-5.58-2.72c-1.3-0.82-2.43-1.81-3.38-2.95
			c-0.95-1.14-1.65-2.27-2.09-3.4c-0.44-1.13-0.66-2.34-0.66-3.62c0-3.09,1.24-5.73,3.73-7.91c2.48-2.18,5.5-3.27,9.05-3.27
			c2.35,0,4.73,0.51,7.15,1.52C395.56,686.76,397.58,688.31,399.18,690.39z"/>
		<path class="st1" d="M404.87,685.58h26.4v5.9h-10.3v37.28h-5.83v-37.28h-10.27V685.58z"/>
		<path class="st1" d="M437.81,685.58h5.83v43.17h-5.83V685.58z"/>
		<path class="st1" d="M453.13,685.58h5.9v17.54l18.31-17.54h8.22l-20.87,20.03l21,23.14h-7.51l-19.16-21.06v21.06h-5.9V685.58z"/>
		<path class="st1" d="M491.62,685.58h5.9v16.6h20.64v-16.6h5.83v43.17h-5.83v-20.74h-20.64v20.74h-5.9V685.58z"/>
		<path class="st1" d="M549.45,683.92l20.38,44.83h-6.18l-5.01-11.05h-18.32l-4.95,11.05h-6.13L549.45,683.92z M549.44,697.39
			l-6.91,15.4h13.89L549.44,697.39z"/>
		<path class="st1" d="M576.17,685.58h9.35c4.65,0,8.44,1.16,11.37,3.47c2.93,2.32,4.39,5.28,4.39,8.89c0,2.89-0.95,5.44-2.84,7.66
			c-1.89,2.21-4.84,3.77-8.86,4.67l12.54,18.48h-6.76l-11.98-17.76h-1.32v17.76h-5.9V685.58z M582.07,690.8v15.05
			c8.7,0.18,13.05-2.34,13.05-7.56c0-1.83-0.51-3.33-1.53-4.49c-1.02-1.16-2.37-1.95-4.07-2.37S585.34,690.8,582.07,690.8z"/>
		<path class="st1" d="M626.07,683.92l20.38,44.83h-6.18l-5.01-11.05h-18.32l-4.95,11.05h-6.13L626.07,683.92z M626.05,697.39
			l-6.91,15.4h13.89L626.05,697.39z"/>
	</g>
</g>
<g>
	<g>
		<path class="st2" d="M418.93,768.44l4.55,4.95h-5.18l-2.54-2.72c-2.75,1.28-5.37,1.93-7.85,1.93c-4.46,0-8.24-1.53-11.35-4.58
			c-3.11-3.05-4.67-6.75-4.67-11.09c0-4.19,1.57-7.78,4.72-10.77c3.14-2.99,6.94-4.49,11.37-4.49c4.36,0,8.11,1.49,11.26,4.46
			c3.15,2.98,4.72,6.53,4.72,10.66C423.96,761.46,422.28,765.34,418.93,768.44z M412.78,767.47l-6.37-6.82h5.18l4.47,4.79
			c2.46-2.35,3.69-5.14,3.69-8.36c0-3.21-1.15-5.9-3.44-8.08c-2.29-2.18-5.14-3.27-8.55-3.27c-3.24,0-5.99,1.11-8.26,3.32
			s-3.41,4.9-3.41,8.06c0,3.16,1.16,5.84,3.48,8.04c2.32,2.2,5.15,3.3,8.49,3.3C409.47,768.44,411.04,768.12,412.78,767.47z"/>
		<path class="st2" d="M439.97,741.46l13.71,30.15h-4.16l-3.37-7.43h-12.32l-3.33,7.43h-4.12L439.97,741.46z M439.96,750.52
			l-4.64,10.35h9.34L439.96,750.52z"/>
		<path class="st2" d="M457.89,742.58h3.92v25.11h9.46v3.92h-13.38V742.58z"/>
		<path class="st2" d="M486.11,741.46l13.71,30.15h-4.16l-3.37-7.43h-12.32l-3.33,7.43h-4.12L486.11,741.46z M486.1,750.52
			l-4.64,10.35h9.34L486.1,750.52z"/>
		<path class="st2" d="M503.24,741.42l21.47,22.06v-20.9h3.96v30.38l-21.47-21.97v20.62h-3.97V741.42z"/>
		<path class="st2" d="M534.64,742.58h7.04c5.58,0,9.72,1.47,12.44,4.42s4.08,6.31,4.08,10.09c0,3.81-1.41,7.19-4.22,10.12
			c-2.81,2.93-6.9,4.4-12.26,4.4h-7.09V742.58z M538.61,746.45v21.24h0.23c2.95,0,5.17-0.13,6.65-0.4c1.49-0.27,2.9-0.85,4.24-1.74
			c1.34-0.9,2.4-2.08,3.19-3.57c0.79-1.48,1.18-3.11,1.18-4.89c0-2.23-0.63-4.25-1.89-6.06s-2.77-3.02-4.52-3.65
			c-1.75-0.62-4.11-0.93-7.08-0.93H538.61z"/>
		<path class="st2" d="M572.68,741.46l13.71,30.15h-4.16l-3.37-7.43h-12.32l-3.33,7.43h-4.12L572.68,741.46z M572.67,750.52
			l-4.64,10.35h9.34L572.67,750.52z"/>
		<path class="st2" d="M590.65,742.58h6.29c3.13,0,5.68,0.78,7.65,2.33c1.97,1.56,2.95,3.55,2.95,5.98c0,1.94-0.64,3.66-1.91,5.15
			c-1.27,1.49-3.26,2.54-5.96,3.14l8.43,12.42h-4.55l-8.05-11.94h-0.89v11.94h-3.96V742.58z M594.62,746.09v10.12
			c5.85,0.12,8.77-1.57,8.77-5.08c0-1.23-0.34-2.24-1.03-3.02c-0.68-0.78-1.6-1.31-2.74-1.59
			C598.49,746.23,596.82,746.09,594.62,746.09z"/>
	</g>
</g>
<path class="st2" d="M529.05,544.92c3.56-9.47,7.24-18.68,10.4-28.06c0.71-2.12,0.57-5.67-0.75-7.15
	c-15.05-16.85-26.26-35.75-32.15-57.67c-0.27-1.01-0.79-1.96-1.79-4.39c-0.36,2.7-0.63,3.79-0.63,4.88
	c-0.02,21.46-0.09,42.93,0.13,64.39c0.02,2.14,1.35,4.75,2.9,6.31c5.28,5.31,5.8,12.03,0.85,17.07c-4.49,4.57-11.74,4.54-16.19-0.06
	c-4.93-5.09-4.43-11.76,0.96-17.03c1.36-1.34,2.78-3.44,2.8-5.21c0.21-22.44,0.17-44.88,0.17-67.31c0-0.7-0.32-1.39-0.77-3.17
	c-2.39,7-4.22,13.06-6.51,18.95c-6.08,15.61-14.95,29.56-26.36,41.79c-2.87,3.08-3.08,5.64-1.64,9.26
	c3.58,9.02,6.86,18.16,10.39,27.61c-10.64-5.06-20.51-10.89-31.14-14.52c-13.73-4.7-27.99-7.96-42.17-11.18
	c-5.45-1.24-9.43-2.25-11.03-8.67c-6.01-23.99-1.64-45.2,15.59-63.29c11.85-12.44,26.43-21.13,41.24-29.47
	c14.93-8.4,30.53-15.85,42.31-28.84c7.2-7.94,12.1-17.04,13.66-28.58c-13.89-2.22-24.58-9.13-31.48-21.09
	c-4.4-7.62-5.84-16.08-5.03-24.84c1.6-17.38,13.93-31.33,33.18-36.44c-11.15,6.8-17.77,15.43-19.65,27.15
	c-1.87,11.67,1.19,22.06,9.08,30.87c11.77,13.15,36.47,20.23,56.61-1.69c-0.89,6.43-6.89,15.18-15.79,19.63
	c-7.66,3.82-16.24,5.79-24.8,8.7c2.83,16.28,12.85,28.89,27.03,38.09c14.21,9.22,29.26,17.14,43.59,26.18
	c15.95,10.06,30.9,21.39,38.73,39.47c6.37,14.73,6.58,29.77,2.22,45.15c-1.41,4.97-4.25,6.41-8.88,7.4
	c-13.48,2.87-27.15,5.4-40.14,9.83C552.08,533.03,540.97,539.37,529.05,544.92z"/>
<path class="st1" d="M375.56,631c0-27.48,0-53.7,0-81.42c7.95,1.11,15.54,2.04,23.07,3.28c6.83,1.12,7.32,0.87,7.52-6.06
	c0.26-8.96,0.6-9.33,9.39-7.97c16.28,2.52,31.78,7.39,46.7,15.84c-9.43-1.96-18.24-4.04-27.14-5.54c-4.78-0.81-9.72-0.59-14.58-0.94
	c-3.23-0.23-4.76,1.3-4.78,4.39c-0.08,9.76-0.14,19.51-0.13,29.27c0,4.34,3.13,3.36,5.84,3.43c11.05,0.29,22.24-0.22,33.12,1.35
	c14.24,2.06,27.27,8.24,38.85,16.77c4.76,3.51,8.05,3.53,12.81,0.19c18.38-12.91,38.88-19.56,61.45-19.3
	c3.89,0.05,7.78,0.58,11.65,1.07c3.11,0.39,4.88-0.43,4.87-3.91c-0.04-9.56-0.02-19.13,0.06-28.69c0.03-3.67-2.01-4.9-5.23-4.49
	c-10.6,1.35-21.19,2.79-31.77,4.29c-1.66,0.23-3.26,0.9-5.31,0.61c0.76-0.64,1.42-1.48,2.28-1.9c13.76-6.81,28.28-11.02,43.56-12.7
	c4.38-0.48,6.91,0.61,6.03,5.61c-0.1,0.57-0.03,1.17-0.02,1.75c0.09,8.14,0.24,8.16,8.34,6.75c5.94-1.04,11.94-1.71,17.91-2.57
	c3.53-0.51,4.89,0.9,4.87,4.53c-0.11,23.61-0.15,47.23-0.01,70.84c0.03,5.26-2.16,5.06-6.2,3.91c-17.11-4.83-34.4-6.15-52.07-2.83
	c-22.8,4.28-42.7,14.43-60.8,28.54c-1.83,1.43-3.66,2.86-5.83,4.55C463.56,629.87,423.41,615.73,375.56,631z M406.11,598.19
	c0-9.89-0.17-18.83,0.07-27.76c0.13-4.97-1.6-7.39-6.77-6.82c-1.15,0.13-2.36,0.1-3.51-0.07c-5.28-0.77-7.34,1.26-7.2,6.76
	c0.31,11.89,0.34,23.81-0.02,35.7c-0.16,5.11,1.06,6.56,6.45,6.4c13.2-0.38,26.62-1.22,39.6,0.61c21.31,3,40.86,11.62,58.22,24.47
	c5.34,3.95,8.93,3.57,14.23-0.18c19.72-13.95,41.44-23.48,65.79-25.25c11.01-0.8,22.16,0.04,33.24,0.43
	c3.13,0.11,4.9-0.32,4.88-3.83c-0.06-13.46,0-26.93-0.18-40.39c-0.02-1.49-1.26-4.2-2.05-4.24c-4.42-0.24-9.09-0.54-13.19,0.74
	c-1.37,0.43-1.73,5.45-1.82,8.39c-0.24,8.12-0.08,16.24-0.08,25.09c-3.01-0.58-4.85-1.1-6.73-1.26c-9.65-0.83-19.37-2.59-28.97-2.11
	c-20.56,1.02-38.24,9.96-54.13,22.61c-2.99,2.38-5.01,2.25-8.08-0.13c-21.77-16.86-45.89-26.27-73.98-22.08
	C416.92,596,412,597.09,406.11,598.19z"/>
<path class="st1" d="M494.4,304.67c11.91,2.43,17.19-2.66,18.75-13.96c2.3,10.26,6.66,16.83,18.83,13.03
	c-5.07,6.33-6.34,9.64-8.99,22.41c-6.94-8.36-13.71-6.65-21.05,0.65C506.6,316.77,505.27,309.39,494.4,304.67z"/>
<g class="st3">
	<rect class="st2" width="1080" height="1080"/>
	<g>
		<g class="st4">
			<text transform="matrix(1 0 0 1 310.62 781.3304)" class="st5 st6 st7">Istikhara Qalandar</text>
		</g>
		<path class="st8" d="M574.49,575.16c3.98-10.59,8.09-20.88,11.62-31.37c0.8-2.37,0.64-6.34-0.84-7.99
			c-16.83-18.84-29.36-39.97-35.95-64.48c-0.3-1.13-0.88-2.19-2-4.91c-0.4,3.02-0.7,4.24-0.7,5.45c-0.02,24-0.1,47.99,0.15,71.99
			c0.02,2.39,1.5,5.31,3.24,7.05c5.9,5.94,6.49,13.45,0.95,19.09c-5.02,5.11-13.13,5.08-18.1-0.06c-5.51-5.7-4.96-13.14,1.07-19.05
			c1.53-1.49,3.11-3.85,3.13-5.82c0.23-25.08,0.19-50.17,0.19-75.26c0-0.78-0.36-1.56-0.86-3.54c-2.67,7.83-4.72,14.61-7.28,21.18
			c-6.8,17.45-16.71,33.05-29.47,46.72c-3.21,3.44-3.44,6.31-1.84,10.35c4,10.08,7.67,20.3,11.62,30.86
			c-11.89-5.65-22.93-12.17-34.81-16.24c-15.35-5.25-31.29-8.9-47.14-12.5c-6.09-1.38-10.54-2.52-12.34-9.69
			c-6.72-26.82-1.83-50.54,17.43-70.76c13.25-13.9,29.54-23.63,46.11-32.95c16.69-9.4,34.13-17.72,47.31-32.25
			c8.05-8.88,13.53-19.05,15.27-31.95c-15.53-2.48-27.48-10.2-35.2-23.58c-4.92-8.52-6.53-17.97-5.63-27.77
			c1.79-19.43,15.58-35.02,37.1-40.74c-12.47,7.6-19.87,17.25-21.97,30.35c-2.09,13.04,1.33,24.66,10.15,34.52
			c13.16,14.7,40.77,22.62,63.29-1.89c-0.99,7.19-7.71,16.98-17.66,21.95c-8.56,4.28-18.16,6.47-27.73,9.73
			c3.16,18.2,14.36,32.29,30.22,42.58c15.89,10.31,32.71,19.16,48.73,29.27c17.83,11.25,34.55,23.91,43.3,44.13
			c7.13,16.47,7.35,33.28,2.48,50.48c-1.57,5.56-4.75,7.17-9.92,8.27c-15.07,3.21-30.35,6.04-44.88,10.99
			C600.24,561.87,587.82,568.96,574.49,575.16z"/>
		<path class="st9" d="M402.89,671.4c0-30.73,0-60.04,0-91.03c8.88,1.25,17.37,2.28,25.8,3.66c7.64,1.26,8.18,0.97,8.4-6.77
			c0.29-10.02,0.67-10.43,10.5-8.91c18.2,2.82,35.53,8.26,52.21,17.71c-10.55-2.19-20.39-4.51-30.35-6.2
			c-5.34-0.9-10.87-0.66-16.3-1.05c-3.62-0.26-5.32,1.45-5.35,4.9c-0.09,10.91-0.15,21.81-0.15,32.72c0,4.86,3.5,3.75,6.53,3.83
			c12.36,0.32,24.86-0.25,37.03,1.51c15.92,2.3,30.49,9.21,43.43,18.75c5.32,3.92,9,3.95,14.32,0.21
			c20.54-14.43,43.47-21.87,68.7-21.58c4.35,0.05,8.7,0.65,13.02,1.2c3.48,0.44,5.46-0.48,5.44-4.38
			c-0.04-10.69-0.02-21.38,0.06-32.07c0.03-4.11-2.24-5.48-5.84-5.02c-11.85,1.51-23.69,3.12-35.52,4.79
			c-1.86,0.26-3.65,1.01-5.94,0.68c0.84-0.72,1.59-1.65,2.55-2.13c15.39-7.62,31.62-12.33,48.7-14.2c4.9-0.54,7.73,0.68,6.74,6.27
			c-0.11,0.64-0.03,1.31-0.02,1.96c0.1,9.1,0.27,9.13,9.32,7.55c6.64-1.16,13.35-1.91,20.03-2.87c3.94-0.57,5.47,1.01,5.45,5.06
			c-0.12,26.4-0.16,52.8-0.01,79.2c0.03,5.88-2.41,5.65-6.93,4.38c-19.13-5.4-38.46-6.87-58.21-3.16
			c-25.49,4.79-47.73,16.13-67.98,31.91c-2.05,1.6-4.1,3.2-6.52,5.09C501.28,670.14,456.38,654.33,402.89,671.4z M437.04,634.72
			c0-11.06-0.19-21.05,0.07-31.04c0.15-5.55-1.79-8.27-7.57-7.63c-1.29,0.14-2.63,0.11-3.92-0.08c-5.9-0.86-8.21,1.41-8.05,7.56
			c0.35,13.3,0.38,26.62-0.02,39.91c-0.18,5.71,1.18,7.33,7.21,7.16c14.76-0.43,29.76-1.36,44.27,0.69
			c23.83,3.36,45.69,13,65.1,27.36c5.97,4.42,9.98,3.99,15.91-0.21c22.04-15.6,46.33-26.25,73.55-28.23
			c12.31-0.9,24.78,0.04,37.16,0.48c3.5,0.13,5.48-0.36,5.46-4.28c-0.07-15.05,0-30.1-0.2-45.15c-0.02-1.67-1.41-4.69-2.29-4.74
			c-4.94-0.27-10.17-0.61-14.75,0.83c-1.54,0.48-1.94,6.09-2.03,9.38c-0.26,9.07-0.09,18.16-0.09,28.05
			c-3.36-0.65-5.42-1.23-7.52-1.41c-10.79-0.92-21.65-2.89-32.38-2.36c-22.99,1.14-42.76,11.13-60.51,25.28
			c-3.34,2.66-5.6,2.52-9.04-0.15c-24.34-18.86-51.31-29.37-82.71-24.69C449.13,632.27,443.63,633.49,437.04,634.72z"/>
		<path class="st10" d="M535.75,306.56c13.31,2.72,19.22-2.98,20.97-15.6c2.57,11.48,7.44,18.81,21.05,14.56
			c-5.67,7.08-7.09,10.78-10.05,25.05c-7.76-9.35-15.33-7.43-23.53,0.73C549.4,320.08,547.91,311.83,535.75,306.56z"/>
	</g>
</g>
</svg>
