<svg xmlns="http://www.w3.org/2000/svg" viewBox="0 0 703.35 795.03"><defs><style>.cls-1{font-size:78.85px;font-family:Trushdex;}.cls-1,.cls-3{fill:#013237;}.cls-2{fill:#b5a076;}.cls-4{fill:#174159;}</style></defs><g id="Layer_2" data-name="Layer 2"><g id="Layer_1-2" data-name="Layer 1"><text class="cls-1" transform="translate(5.04 762.23)">ISTIKHARA QALANDAR</text><path class="cls-2" d="M403.81,450.66c6-16,12.23-31.57,17.57-47.41,1.21-3.58,1-9.58-1.27-12.08-25.43-28.47-44.37-60.41-54.32-97.45-.46-1.71-1.34-3.31-3-7.41-.6,4.56-1.06,6.4-1.06,8.24,0,36.26-.14,72.53.23,108.79,0,3.62,2.27,8,4.89,10.66,8.93,9,9.81,20.33,1.44,28.85a19,19,0,0,1-27.36-.1c-8.32-8.61-7.48-19.86,1.62-28.78,2.3-2.26,4.7-5.82,4.72-8.81.36-37.9.29-75.82.29-113.73,0-1.18-.55-2.35-1.3-5.36-4,11.83-7.13,22.08-11,32a219.75,219.75,0,0,1-44.54,70.6c-4.85,5.19-5.2,9.53-2.77,15.64,6,15.24,11.59,30.68,17.56,46.65-18-8.55-34.66-18.4-52.61-24.54-23.2-7.93-47.29-13.44-71.24-18.88-9.21-2.09-15.93-3.81-18.65-14.65-10.16-40.52-2.76-76.37,26.35-106.93,20-21,44.65-35.71,69.68-49.8,25.22-14.2,51.59-26.78,71.49-48.73C342.67,174,351,158.66,353.58,139.17c-23.47-3.76-41.52-15.42-53.19-35.63-7.43-12.87-9.87-27.16-8.51-42C294.59,32.2,315.42,8.64,348,0c-18.85,11.49-30,26.08-33.2,45.87s2,37.27,15.34,52.16c19.89,22.21,61.62,34.18,95.65-2.85-1.51,10.87-11.65,25.65-26.69,33.17-12.93,6.46-27.44,9.77-41.91,14.71,4.78,27.5,21.71,48.8,45.67,64.35s49.43,29,73.64,44.24c26.95,17,52.22,36.13,65.44,66.69,10.77,24.89,11.11,50.3,3.75,76.29-2.38,8.4-7.19,10.83-15,12.5-22.77,4.85-45.87,9.13-67.83,16.6C442.73,430.57,424,441.28,403.81,450.66Z"/><path class="cls-3" d="M144.47,596.1V458.54c13.43,1.88,26.25,3.44,39,5.54,11.54,1.9,12.36,1.46,12.7-10.24.43-15.14,1-15.77,15.87-13.46,27.51,4.26,53.7,12.48,78.91,26.76-15.94-3.31-30.82-6.82-45.86-9.36-8.07-1.37-16.42-1-24.63-1.59-5.47-.39-8,2.2-8.09,7.41q-.2,24.73-.22,49.45c0,7.34,5.28,5.68,9.87,5.8,18.68.48,37.58-.38,56,2.28,24,3.48,46.07,13.92,65.64,28.34,8,5.93,13.6,6,21.64.31,31.05-21.81,65.7-33,103.82-32.61A173.61,173.61,0,0,1,488.75,519c5.26.67,8.25-.72,8.22-6.61q-.09-24.24.1-48.47c.05-6.21-3.39-8.28-8.83-7.59q-26.87,3.44-53.68,7.25c-2.81.39-5.51,1.52-9,1,1.28-1.09,2.4-2.49,3.86-3.21A218,218,0,0,1,503,439.91c7.4-.82,11.68,1,10.18,9.47a16.34,16.34,0,0,0,0,3c.15,13.75.41,13.79,14.08,11.4,10-1.75,20.18-2.89,30.27-4.34,6-.86,8.26,1.53,8.24,7.65q-.27,59.85,0,119.69c.06,8.88-3.64,8.55-10.47,6.62-28.92-8.16-58.12-10.39-88-4.78-38.52,7.23-72.14,24.38-102.73,48.22l-9.85,7.68C293.17,594.2,225.32,570.31,144.47,596.1Zm51.62-55.43c0-16.71-.28-31.81.12-46.9.21-8.4-2.71-12.5-11.45-11.53a23.46,23.46,0,0,1-5.92-.11c-8.92-1.3-12.41,2.12-12.17,11.41.53,20.1.59,40.23,0,60.33-.27,8.62,1.79,11.08,10.89,10.81,22.3-.64,45-2,66.9,1,36,5.07,69.05,19.64,98.38,41.35,9,6.68,15.09,6,24.05-.32,33.32-23.57,70-39.66,111.16-42.67,18.61-1.36,37.44.06,56.16.73,5.29.19,8.27-.54,8.25-6.47-.11-22.75,0-45.49-.3-68.24,0-2.52-2.13-7.09-3.47-7.17-7.46-.4-15.36-.91-22.28,1.26-2.33.72-2.93,9.2-3.08,14.17-.39,13.71-.13,27.44-.13,42.38-5.08-1-8.2-1.86-11.37-2.13-16.31-1.4-32.72-4.37-48.94-3.57-34.74,1.72-64.61,16.82-91.45,38.2-5.06,4-8.46,3.8-13.66-.22-36.79-28.5-77.54-44.39-125-37.31C214.36,537,206.05,538.8,196.09,540.67Z"/><path class="cls-4" d="M345.27,44.72c20.11,4.11,29-4.5,31.68-23.58,3.89,17.34,11.25,28.43,31.82,22C400.2,53.85,398.06,59.44,393.59,81c-11.74-14.13-23.17-11.23-35.57,1.1C365.89,65.16,363.64,52.69,345.27,44.72Z"/></g></g></svg>