<svg xmlns="http://www.w3.org/2000/svg" viewBox="0 0 1079.63 444.97"><defs><style>.cls-1{font-size:170px;font-family:Trushdex;}.cls-1,.cls-3{fill:#fff;}.cls-2{fill:#b5a076;}</style></defs><g id="Layer_2" data-name="Layer 2"><g id="Layer_1-2" data-name="Layer 1"><text class="cls-1" transform="translate(356.52 168.53)">ISTIKHARA</text><path class="cls-2" d="M172.51,299.77c4-10.65,8.13-21,11.68-31.54.8-2.38.65-6.37-.84-8-16.92-18.94-29.52-40.19-36.14-64.82a51.51,51.51,0,0,0-2-4.93c-.4,3-.7,4.26-.7,5.48,0,24.12-.1,48.24.15,72.36a11.42,11.42,0,0,0,3.25,7.1c5.94,6,6.52,13.52,1,19.18a12.64,12.64,0,0,1-18.2-.06c-5.53-5.73-5-13.21,1.08-19.15,1.53-1.5,3.12-3.87,3.14-5.85.23-25.22.19-50.44.19-75.66a21.92,21.92,0,0,0-.86-3.56c-2.69,7.87-4.75,14.68-7.32,21.29a146.15,146.15,0,0,1-29.63,47C94,262,93.8,264.89,95.42,269c4,10.13,7.7,20.4,11.68,31-12-5.68-23-12.23-35-16.32-15.43-5.28-31.45-8.94-47.39-12.56-6.12-1.39-10.59-2.53-12.4-9.74-6.76-27-1.84-50.81,17.53-71.13,13.31-14,29.7-23.75,46.35-33.13s34.31-17.81,47.55-32.41c8.1-8.93,13.6-19.16,15.36-32.12-15.62-2.5-27.63-10.26-35.39-23.7C98.77,60.31,97.15,50.8,98.05,41c1.81-19.54,15.66-35.21,37.3-41-12.54,7.64-20,17.35-22.09,30.51s1.34,24.79,10.21,34.7c13.23,14.77,41,22.73,63.62-1.9-1,7.23-7.75,17.07-17.75,22.06-8.6,4.3-18.25,6.51-27.88,9.79,3.18,18.3,14.44,32.46,30.38,42.8s32.88,19.27,49,29.43c17.92,11.31,34.73,24,43.52,44.36,7.16,16.56,7.39,33.46,2.5,50.75-1.59,5.59-4.78,7.21-10,8.31-15.15,3.23-30.51,6.08-45.12,11.05C198.39,286.41,185.91,293.53,172.51,299.77Z"/><path class="cls-3" d="M0,396.52V305c8.93,1.25,17.46,2.29,25.93,3.68,7.68,1.27,8.23,1,8.45-6.8.29-10.07.67-10.49,10.56-9a151.56,151.56,0,0,1,52.49,17.81c-10.6-2.21-20.5-4.54-30.51-6.24-5.36-.91-10.92-.66-16.38-1.05-3.64-.26-5.35,1.46-5.38,4.93Q45,324.82,45,341.27c0,4.89,3.52,3.78,6.57,3.86,12.42.32,25-.26,37.22,1.51,16,2.32,30.64,9.27,43.66,18.86,5.35,3.94,9,4,14.4.2,20.65-14.5,43.7-22,69.06-21.69A115.37,115.37,0,0,1,229,345.22c3.49.44,5.48-.49,5.47-4.4q-.07-16.12.06-32.24c0-4.13-2.25-5.51-5.87-5.05q-17.88,2.28-35.71,4.82c-1.87.26-3.67,1-6,.68a14.26,14.26,0,0,1,2.56-2.14,145,145,0,0,1,49-14.27c4.92-.54,7.77.68,6.77,6.3a10.8,10.8,0,0,0,0,2c.1,9.15.28,9.18,9.37,7.59,6.68-1.16,13.43-1.92,20.14-2.89,4-.57,5.49,1,5.47,5.09q-.18,39.81,0,79.62c0,5.9-2.42,5.68-7,4.4-19.23-5.43-38.66-6.91-58.52-3.18-25.63,4.81-48,16.21-68.34,32.07l-6.55,5.12C98.91,395.25,53.78,379.36,0,396.52Zm34.34-36.88c0-11.11-.19-21.16.07-31.2.15-5.58-1.8-8.31-7.61-7.66a15.74,15.74,0,0,1-3.94-.08c-5.93-.86-8.25,1.42-8.09,7.6.35,13.36.38,26.76,0,40.12-.17,5.74,1.19,7.37,7.25,7.2,14.83-.43,29.91-1.37,44.5.68,24,3.38,45.93,13.07,65.44,27.51,6,4.44,10,4,16-.21,22.16-15.68,46.58-26.38,73.94-28.38,12.37-.91,24.9,0,37.35.48,3.53.13,5.51-.36,5.49-4.3-.07-15.13,0-30.27-.2-45.39,0-1.68-1.42-4.72-2.3-4.77-5-.27-10.22-.61-14.83.83-1.54.48-1.95,6.12-2,9.43-.27,9.12-.09,18.25-.09,28.19-3.38-.65-5.45-1.24-7.56-1.42-10.85-.93-21.77-2.91-32.56-2.37-23.1,1.14-43,11.19-60.83,25.41-3.36,2.67-5.63,2.53-9.08-.15-24.47-19-51.58-29.53-83.15-24.82C46.49,357.18,41,358.4,34.34,359.64Z"/><path class="cls-3" d="M133.56,29.75c13.38,2.73,19.32-3,21.08-15.69C157.23,25.6,162.12,33,175.81,28.7c-5.7,7.12-7.13,10.84-10.1,25.19-7.81-9.4-15.41-7.47-23.66.73C147.28,43.35,145.78,35.05,133.56,29.75Z"/><text class="cls-1" transform="translate(333.69 374.25)">QALANDAR</text></g></g></svg>