<svg width="100px" height="100px" xmlns="http://www.w3.org/2000/svg" viewBox="0 0 294.27 506.37">
    <defs>
        <style>
            .cls-1 {
                font-size: 69.4px;
            }

            .cls-1,
            .cls-5 {
                fill: #fff;
            }

            .cls-1,
            .cls-2 {
                font-family: TwCenMT-Regular, Tw Cen MT;
            }

            .cls-2 {
                font-size: 46.67px;
            }

            .cls-2,
            .cls-4 {
                fill: #b5a076;
            }

            .cls-3 {
                letter-spacing: -0.02em;
            }
        </style>
    </defs>
    <g id="Layer_2" data-name="Layer 2">
        <g id="Layer_1-2" data-name="Layer 1"><text class="cls-1" transform="translate(0 450.55)">ISTIKHARA</text><text
                class="cls-2" transform="translate(37.03 493.41)">QALAN<tspan class="cls-3" x="141.44" y="0">D</tspan>
                <tspan x="168.7" y="0">AR</tspan>
            </text>
            <path class="cls-4"
                d="M176,266.72c3.56-9.47,7.23-18.68,10.39-28.06.71-2.12.58-5.67-.75-7.15-15-16.85-26.26-35.75-32.15-57.67-.27-1-.79-2-1.79-4.39-.36,2.7-.63,3.79-.63,4.88,0,21.46-.09,42.92.13,64.39a10.18,10.18,0,0,0,2.9,6.3c5.28,5.31,5.8,12,.85,17.08a11.25,11.25,0,0,1-16.19-.06c-4.92-5.09-4.43-11.76,1-17,1.36-1.34,2.78-3.45,2.79-5.21.21-22.44.17-44.88.17-67.32a18.33,18.33,0,0,0-.77-3.17c-2.38,7-4.22,13.07-6.51,18.95A129.8,129.8,0,0,1,109,230c-2.87,3.08-3.07,5.64-1.64,9.26,3.58,9,6.86,18.16,10.4,27.61-10.64-5.06-20.51-10.89-31.14-14.52-13.73-4.7-28-8-42.17-11.18C39,240,35,239,33.42,232.55c-6-24-1.64-45.21,15.59-63.29,11.85-12.44,26.43-21.14,41.24-29.48s30.53-15.85,42.31-28.84c7.21-7.94,12.11-17,13.67-28.57-13.9-2.23-24.58-9.13-31.49-21.09a41.15,41.15,0,0,1-5-24.84C111.31,19.06,123.64,5.11,142.89,0c-11.15,6.8-17.77,15.43-19.65,27.15A35.86,35.86,0,0,0,132.32,58c11.78,13.15,36.47,20.23,56.61-1.69C188,62.76,182,71.51,173.14,76c-7.66,3.83-16.25,5.79-24.81,8.71,2.83,16.28,12.85,28.88,27,38.08s29.25,17.14,43.59,26.19c15.94,10.06,30.9,21.38,38.72,39.47,6.38,14.73,6.58,29.77,2.22,45.15-1.41,5-4.25,6.41-8.87,7.4-13.48,2.87-27.15,5.4-40.15,9.82C199,254.83,187.88,261.17,176,266.72Z" />
            <path class="cls-5"
                d="M22.46,352.8V271.38c8,1.12,15.54,2,23.08,3.28,6.83,1.13,7.32.87,7.52-6.06.25-9,.59-9.33,9.39-8a135.07,135.07,0,0,1,46.7,15.85c-9.43-2-18.24-4-27.14-5.55-4.78-.81-9.72-.59-14.58-.93-3.24-.23-4.76,1.3-4.78,4.38q-.13,14.64-.14,29.27c0,4.34,3.13,3.36,5.85,3.43,11,.29,22.23-.23,33.11,1.35,14.24,2.06,27.27,8.24,38.85,16.77,4.76,3.51,8.05,3.53,12.81.19,18.38-12.91,38.88-19.57,61.45-19.3a101.1,101.1,0,0,1,11.64,1.07c3.12.39,4.89-.43,4.87-3.92q-.06-14.34.06-28.68c0-3.68-2-4.9-5.23-4.49q-15.9,2-31.77,4.28c-1.66.24-3.26.91-5.31.61a12.64,12.64,0,0,1,2.28-1.9,128.81,128.81,0,0,1,43.56-12.7c4.38-.48,6.91.61,6,5.61a9.27,9.27,0,0,0,0,1.75c.09,8.14.24,8.16,8.33,6.75,5.94-1,12-1.71,17.92-2.57,3.52-.51,4.89.9,4.87,4.53-.1,23.61-.15,47.22,0,70.84,0,5.25-2.16,5.05-6.2,3.91-17.12-4.83-34.4-6.14-52.07-2.83-22.8,4.29-42.7,14.43-60.8,28.54l-5.83,4.55C110.47,351.67,70.31,337.53,22.46,352.8ZM53,320c0-9.88-.17-18.83.06-27.76.13-5-1.6-7.39-6.77-6.82a13.75,13.75,0,0,1-3.51-.07c-5.27-.76-7.34,1.26-7.2,6.76.32,11.9.35,23.81,0,35.7-.16,5.11,1.06,6.56,6.45,6.41,13.2-.39,26.62-1.22,39.6.61,21.31,3,40.86,11.62,58.22,24.47,5.34,3.95,8.93,3.57,14.24-.18,19.71-14,41.44-23.48,65.78-25.26,11-.8,22.16,0,33.24.43,3.13.12,4.9-.32,4.88-3.83-.06-13.46,0-26.92-.18-40.39,0-1.49-1.26-4.19-2.05-4.24-4.41-.24-9.09-.54-13.19.74-1.37.43-1.73,5.45-1.81,8.39-.24,8.12-.09,16.24-.09,25.09-3-.58-4.85-1.11-6.72-1.27-9.66-.82-19.37-2.58-29-2.11-20.56,1-38.24,10-54.12,22.61-3,2.38-5,2.25-8.09-.13-21.77-16.87-45.89-26.27-74-22.08C63.83,317.8,58.91,318.89,53,320Z" />
            <path class="cls-5"
                d="M141.3,26.47c11.91,2.43,17.19-2.67,18.76-14,2.3,10.27,6.65,16.83,18.83,13-5.07,6.33-6.34,9.64-9,22.41-6.94-8.37-13.71-6.65-21.05.65C153.51,38.57,152.18,31.19,141.3,26.47Z" />
        </g>
    </g>
</svg>