<svg xmlns="http://www.w3.org/2000/svg" viewBox="0 0 925.6 386.11"><defs><style>.cls-1{font-size:127.1px;}.cls-1,.cls-3,.cls-5{fill:#013237;}.cls-1,.cls-5{font-family:Trushdex;}.cls-2{fill:#b5a076;}.cls-4{fill:#174159;}.cls-5{font-size:144.68px;}</style></defs><g id="Layer_2" data-name="Layer 2"><g id="Layer_1-2" data-name="Layer 1"><text class="cls-1" transform="translate(314.41 119.01)">ISTIKHARA</text><path class="cls-2" d="M148.9,258.75c3.46-9.19,7-18.12,10.09-27.22.69-2.06.56-5.5-.73-6.94-14.6-16.34-25.48-34.68-31.19-56-.27-1-.77-1.9-1.74-4.25-.34,2.62-.61,3.67-.61,4.73,0,20.82-.08,41.64.13,62.46a9.81,9.81,0,0,0,2.82,6.12c5.12,5.15,5.62,11.68.82,16.57a10.92,10.92,0,0,1-15.71-.06c-4.77-4.94-4.3-11.41.93-16.53,1.32-1.29,2.7-3.34,2.71-5.05.21-21.77.17-43.54.16-65.3a18,18,0,0,0-.74-3.08c-2.32,6.79-4.09,12.68-6.32,18.38A125.94,125.94,0,0,1,84,223.17c-2.78,3-3,5.47-1.59,9,3.47,8.75,6.65,17.62,10.08,26.78-10.31-4.9-19.89-10.56-30.2-14.08-13.32-4.56-27.15-7.72-40.91-10.85-5.28-1.2-9.14-2.18-10.7-8.4C4.79,202.33,9,181.74,25.76,164.2c11.49-12.07,25.63-20.5,40-28.59s29.62-15.38,41.05-28c7-7.71,11.74-16.54,13.25-27.73-13.48-2.15-23.84-8.85-30.54-20.45a39.88,39.88,0,0,1-4.88-24.1C86.19,18.49,98.15,5,116.83,0,106,6.6,99.59,15,97.76,26.33a34.78,34.78,0,0,0,8.82,30C118,69,142,75.91,161.49,54.65c-.86,6.24-6.69,14.73-15.32,19-7.43,3.71-15.76,5.62-24.07,8.45,2.75,15.79,12.47,28,26.22,36.94s28.39,16.63,42.29,25.41c15.47,9.76,30,20.74,37.57,38.29,6.18,14.29,6.38,28.88,2.15,43.8-1.36,4.82-4.12,6.22-8.61,7.18-13.07,2.78-26.33,5.24-38.94,9.53C171.25,247.22,160.47,253.37,148.9,258.75Z"/><path class="cls-3" d="M0,342.26v-79c7.71,1.09,15.07,2,22.38,3.18,6.63,1.09,7.1.84,7.3-5.87.25-8.69.58-9.06,9.11-7.73A130.76,130.76,0,0,1,84.1,268.22c-9.15-1.91-17.7-3.92-26.33-5.38-4.64-.79-9.43-.57-14.15-.91-3.14-.23-4.61,1.26-4.64,4.25q-.12,14.2-.13,28.4c0,4.21,3,3.25,5.67,3.32,10.72.28,21.57-.22,32.13,1.31,13.81,2,26.45,8,37.68,16.27,4.62,3.41,7.81,3.43,12.43.18,17.83-12.52,37.72-19,59.61-18.72a99.9,99.9,0,0,1,11.3,1c3,.38,4.74-.42,4.72-3.8q-.06-13.92.06-27.83c0-3.56-1.95-4.75-5.07-4.35q-15.44,2-30.82,4.16c-1.62.22-3.17.87-5.16.59a12,12,0,0,1,2.22-1.85,125.08,125.08,0,0,1,42.25-12.32c4.25-.47,6.71.59,5.85,5.44a8.76,8.76,0,0,0,0,1.7c.09,7.89.24,7.92,8.09,6.55,5.76-1,11.59-1.66,17.38-2.5,3.42-.49,4.74.88,4.73,4.4q-.17,34.35,0,68.72c0,5.1-2.09,4.91-6,3.8-16.6-4.69-33.37-6-50.51-2.75-22.12,4.16-41.42,14-59,27.69L120.72,370C85.37,341.17,46.42,327.45,0,342.26Zm29.64-31.83c0-9.59-.16-18.26.06-26.93.13-4.82-1.55-7.17-6.57-6.61a13.82,13.82,0,0,1-3.4-.07c-5.12-.75-7.12,1.22-7,6.55.3,11.54.33,23.1,0,34.64-.16,4.95,1,6.36,6.25,6.21,12.8-.37,25.82-1.18,38.41.59,20.68,2.92,39.65,11.28,56.49,23.74,5.18,3.84,8.66,3.47,13.81-.18,19.12-13.53,40.2-22.77,63.82-24.5,10.68-.78,21.5,0,32.24.42,3,.11,4.76-.31,4.74-3.71-.06-13.06,0-26.12-.17-39.18,0-1.45-1.23-4.08-2-4.12-4.29-.23-8.82-.52-12.8.72-1.33.42-1.68,5.28-1.76,8.14-.23,7.87-.08,15.76-.08,24.33-2.92-.56-4.71-1.07-6.53-1.22-9.36-.8-18.78-2.51-28.1-2.05-19.94,1-37.1,9.66-52.5,21.93-2.91,2.31-4.86,2.18-7.85-.13C95.59,312.64,72.2,303.52,45,307.58,40.13,308.3,35.36,309.36,29.64,310.43Z"/><path class="cls-4" d="M115.29,25.68C126.84,28,132,23.09,133.48,12.14c2.23,10,6.46,16.32,18.27,12.64-4.92,6.14-6.15,9.35-8.72,21.73-6.73-8.11-13.3-6.45-20.42.63C127.13,37.41,125.84,30.26,115.29,25.68Z"/><text class="cls-5" transform="translate(290.76 325.92)">QALANDAR</text></g></g></svg>